<svg xmlns="http://www.w3.org/2000/svg" viewBox="0 0 512 512" width="512" height="512"><defs><linearGradient id="m" x1="50" y1="330" x2="470" y2="150" gradientUnits="userSpaceOnUse"><stop offset="0" stop-color="#3B7BFF"/><stop offset=".5" stop-color="#57C8FF"/><stop offset="1" stop-color="#2FC4B2"/></linearGradient><linearGradient id="t" x1="0" y1="0" x2="0" y2="1"><stop offset="0" stop-color="#16384A"/><stop offset="1" stop-color="#0A1626"/></linearGradient><radialGradient id="glow" cx=".5" cy=".5" r=".5"><stop offset="0" stop-color="#57C8FF" stop-opacity=".28"/><stop offset="1" stop-color="#57C8FF" stop-opacity="0"/></radialGradient></defs><circle cx="256" cy="256" r="256" fill="url(#t)"/><circle cx="256" cy="256" r="220" fill="url(#glow)"/><filter id="b"><feGaussianBlur stdDeviation="6"/></filter><clipPath id="c"><circle cx="250" cy="246" r="98"/></clipPath><g filter="url(#b)"><rect x="110" y="140" width="230" height="16" rx="8" fill="#DFF6FF" opacity="0.5"/><rect x="110" y="184" width="190" height="16" rx="8" fill="#DFF6FF" opacity="0.5"/><rect x="110" y="228" width="250" height="16" rx="8" fill="#DFF6FF" opacity="0.5"/><rect x="110" y="272" width="160" height="16" rx="8" fill="#DFF6FF" opacity="0.5"/><rect x="110" y="316" width="220" height="16" rx="8" fill="#DFF6FF" opacity="0.5"/></g><circle cx="130" cy="130" r="3" fill="#57C8FF" opacity="0.35"/><circle cx="200" cy="360" r="4" fill="#57C8FF" opacity="0.3"/><circle cx="390" cy="150" r="3" fill="#57C8FF" opacity="0.3"/><circle cx="150" cy="390" r="3" fill="#57C8FF" opacity="0.3"/><circle cx="380" cy="380" r="3" fill="#57C8FF" opacity="0.25"/><circle cx="420" cy="260" r="4" fill="#57C8FF" opacity="0.25"/><circle cx="95" cy="250" r="3" fill="#57C8FF" opacity="0.3"/><circle cx="250" cy="246" r="98" fill="#0E2238" fill-opacity=".8"/><g clip-path="url(#c)"><rect x="110" y="140" width="230" height="16" rx="8" fill="#DFF6FF" opacity="1"/><rect x="110" y="184" width="190" height="16" rx="8" fill="#DFF6FF" opacity="1"/><rect x="110" y="228" width="250" height="16" rx="8" fill="#DFF6FF" opacity="1"/><rect x="110" y="272" width="160" height="16" rx="8" fill="#DFF6FF" opacity="1"/><rect x="110" y="316" width="220" height="16" rx="8" fill="#DFF6FF" opacity="1"/></g><circle cx="250" cy="246" r="98" fill="none" stroke="url(#m)" stroke-width="30"/><path d="M320 316L378 374" stroke="url(#m)" stroke-width="34" stroke-linecap="round"/></svg>
